<svg width="112" height="127" viewBox="0 0 112 127" fill="none" xmlns="http://www.w3.org/2000/svg">
<g clip-path="url(#clip0)">
<path d="M0 60.1696C0 44.3056 -2.14577e-06 36.3736 3.08735 30.3143C5.80305 24.9845 10.1364 20.6512 15.4662 17.9354C21.5255 14.8481 29.4578 14.8481 45.3215 14.8481H49.098C64.9624 14.8481 72.8942 14.8481 78.9534 17.9354C84.283 20.6512 88.6169 24.9845 91.3327 30.3143C94.4194 36.3736 94.4194 44.3056 94.4194 60.1696V63.946C94.4194 79.8105 94.4194 87.7423 91.3327 93.8015C88.6169 99.1311 84.283 103.465 78.9534 106.181C76.3919 107.486 74.1299 108.239 71.1734 108.674C60.2684 110.277 50.4406 116.462 47.2097 127C43.6055 116.398 33.5153 110.497 22.4813 108.586C19.9059 108.14 17.8635 107.402 15.4662 106.181C10.1364 103.465 5.80305 99.1311 3.08735 93.8015C-2.14577e-06 87.7423 0 79.8105 0 63.946V60.1696Z" fill="white"/>
<path d="M37.6875 75.25C37.6875 76.8724 36.3723 78.1875 34.75 78.1875C33.1277 78.1875 31.8125 76.8724 31.8125 75.25C31.8125 73.6277 33.1277 72.3125 34.75 72.3125C36.3723 72.3125 37.6875 73.6277 37.6875 75.25Z" fill="#FA9214"/>
<path d="M61.1875 75.25C61.1875 76.8724 59.8723 78.1875 58.25 78.1875C56.6277 78.1875 55.3125 76.8724 55.3125 75.25C55.3125 73.6277 56.6277 72.3125 58.25 72.3125C59.8723 72.3125 61.1875 73.6277 61.1875 75.25Z" fill="#FA9214"/>
<path d="M34.05 49.9311C34.3014 49.803 34.6304 49.803 35.2885 49.803H36.5449C37.9327 49.803 38.9781 50.0478 39.6813 50.5372C40.403 51.0092 40.7638 51.7783 40.7638 52.8446C40.7638 54.0857 40.3752 54.9597 39.598 55.4666C38.8209 55.9736 37.7569 56.227 36.4061 56.227H35.2885C34.6304 56.227 34.3014 56.227 34.05 56.099C33.8289 55.9863 33.6492 55.8066 33.5365 55.5855C33.4085 55.3341 33.4085 55.0051 33.4085 54.347V51.683C33.4085 51.025 33.4085 50.6959 33.5365 50.4446C33.6492 50.2235 33.8289 50.0438 34.05 49.9311Z" fill="#FA9214"/>
<path fill-rule="evenodd" clip-rule="evenodd" d="M23 62.56C23 54.6633 23 50.7149 24.5368 47.6987C25.8886 45.0456 28.0456 42.8886 30.6987 41.5368C33.7149 40 37.6633 40 45.56 40H47.44C55.3367 40 59.2851 40 62.3013 41.5368C64.9544 42.8886 67.1114 45.0456 68.4632 47.6987C70 50.7149 70 54.6633 70 62.56V64.44C70 72.3367 70 76.2851 68.4632 79.3013C67.1114 81.9544 64.9544 84.1114 62.3013 85.4632C59.2851 87 55.3367 87 47.44 87H45.56C37.6633 87 33.7149 87 30.6987 85.4632C28.0456 84.1114 25.8886 81.9544 24.5368 79.3013C23 76.2851 23 72.3367 23 64.44V62.56ZM56.6193 54.81L59.0398 69.4277C61.911 69.8134 64.125 72.2732 64.125 75.25C64.125 78.4947 61.4947 81.125 58.25 81.125C55.4079 81.125 53.0371 79.1069 52.4926 76.4254H40.5074C39.9629 79.1069 37.5921 81.125 34.75 81.125C31.5053 81.125 28.875 78.4947 28.875 75.25C28.875 72.0053 31.5053 69.375 34.75 69.375C37.3808 69.375 39.6077 71.1042 40.3562 73.4879H52.6438C53.1785 71.7851 54.4677 70.4163 56.1195 69.7732L53.7303 55.3445C53.5417 54.2052 53.4125 53.431 53.2666 52.8339C53.1251 52.2547 52.9911 51.9476 52.8438 51.7257C52.5063 51.2175 52.0319 50.8151 51.4753 50.5652C51.2324 50.4562 50.9075 50.3741 50.313 50.3291C49.7 50.2827 48.9152 50.2818 47.7604 50.2818H47.6751L47.6751 47.3443L47.8157 47.3443C48.9014 47.3442 49.7977 47.3442 50.5346 47.4C51.3024 47.4581 52.0031 47.5822 52.6785 47.8855C53.741 48.3625 54.6468 49.1306 55.291 50.1009C55.7006 50.7178 55.9375 51.3888 56.1202 52.1367C56.2956 52.8546 56.442 53.7389 56.6193 54.81ZM30.1781 47.6915C30.05 47.9428 30.05 48.2718 30.05 48.9299V64.1707C30.05 64.6401 30.05 64.8748 30.1161 65.0635C30.2342 65.4006 30.4993 65.6657 30.8364 65.7838C31.0251 65.8499 31.2598 65.8499 31.7292 65.8499C32.1987 65.8499 32.4334 65.8499 32.622 65.7838C32.9591 65.6657 33.2242 65.4006 33.3424 65.0635C33.4085 64.8748 33.4085 64.6401 33.4085 64.1707V60.8339C33.4085 60.1759 33.4085 59.8469 33.5365 59.5955C33.6492 59.3744 33.8289 59.1947 34.05 59.082C34.3014 58.9539 34.6304 58.9539 35.2885 58.9539H36.4061C37.5718 58.9539 38.6266 58.8403 39.5703 58.6131C40.5325 58.3684 41.3467 57.9925 42.0128 57.4856C42.6974 56.9787 43.2248 56.3319 43.5949 55.5453C43.965 54.7587 44.15 53.8235 44.15 52.7397C44.15 50.7645 43.4839 49.3223 42.1516 48.4134C40.8193 47.5044 38.9504 47.0499 36.5449 47.0499H31.93C31.2719 47.0499 30.9429 47.0499 30.6916 47.178C30.4705 47.2906 30.2907 47.4704 30.1781 47.6915Z" fill="#FA9214"/>
<rect x="57" width="51" height="38" rx="19" fill="#00CA50"/>
<path d="M76.156 28.7283H73.0052V12.9674L69 16.962V13.7011L73.4324 9.24457H76.156V28.7283Z" fill="white"/>
<path d="M88.1498 29C87.0461 29 86.0136 28.7917 85.0524 28.375C84.0911 27.9402 83.2545 27.3062 82.5425 26.4728C81.8304 25.6395 81.2697 24.5978 80.8603 23.3478C80.4508 22.0978 80.2461 20.6395 80.2461 18.9728C80.2461 17.3243 80.4508 15.875 80.8603 14.625C81.2697 13.375 81.8304 12.3333 82.5425 11.5C83.2545 10.6667 84.0911 10.0417 85.0524 9.625C86.0136 9.20833 87.0461 9 88.1498 9C89.2534 9 90.277 9.20833 91.2204 9.625C92.1817 10.0417 93.0183 10.6667 93.7304 11.5C94.4424 12.3152 94.9942 13.3478 95.3859 14.5978C95.7953 15.8297 96 17.2699 96 18.9185C96 20.567 95.7953 22.0163 95.3859 23.2663C94.9942 24.5163 94.4424 25.567 93.7304 26.4185C93.0183 27.2699 92.1817 27.913 91.2204 28.3478C90.277 28.7826 89.2534 29 88.1498 29ZM88.1231 26.3641C88.7817 26.3641 89.3958 26.2373 89.9655 25.9837C90.5351 25.712 91.0246 25.2862 91.434 24.7065C91.8613 24.1268 92.1906 23.375 92.422 22.4511C92.6712 21.5091 92.7958 20.3587 92.7958 19C92.7958 17.6413 92.6712 16.5 92.422 15.5761C92.1906 14.6341 91.8613 13.8732 91.434 13.2935C91.0246 12.6957 90.5351 12.2699 89.9655 12.0163C89.3958 11.7446 88.7906 11.6087 88.1498 11.6087C87.4911 11.6087 86.877 11.7446 86.3074 12.0163C85.7377 12.2699 85.2393 12.6957 84.8121 13.2935C84.4027 13.8732 84.0733 14.6341 83.8241 15.5761C83.5927 16.5 83.477 17.6413 83.477 19C83.477 20.3587 83.5927 21.5091 83.8241 22.4511C84.0733 23.375 84.4027 24.1268 84.8121 24.7065C85.2393 25.2862 85.7377 25.712 86.3074 25.9837C86.877 26.2373 87.4822 26.3641 88.1231 26.3641Z" fill="white"/>
</g>
<defs>
<clipPath id="clip0">
<rect width="112" height="127" fill="white"/>
</clipPath>
</defs>
</svg>
